<svg xmlns="http://www.w3.org/2000/svg" viewBox="0 0 137.75 147.8" id="close">
  <g style="isolation:isolate">
    <g id="Layer_2">
      <g id="Layer_1-2">
        <path d="M120.77 70.71c0 29.41-23.41 53.25-52.3 53.25a51.43 51.43 0 0 1-33.59-12.45A53.26 53.26 0 0 1 17.15 81a54 54 0 0 1-1-10.28c0-29.41 23.41-53.25 52.3-53.25a51.56 51.56 0 0 1 28.8 8.8 52.74 52.74 0 0 1 11.43 10.43 53.6 53.6 0 0 1 12.07 34z" style="fill:#f93052"></path>
        <path d="m118 53.66-66.27 67.51a51.73 51.73 0 0 1-16.85-9.66c.21-.27.43-.51.67-.76l71.31-72.61a9.58 9.58 0 0 1 1.84-1.45 53.57 53.57 0 0 1 9.3 16.97zM97.28 26.26c-.18.21-.35.41-.55.61l-71.32 72.6c-.2.2-.39.38-.6.56a53.36 53.36 0 0 1-7.66-19l61.42-62.57a51.37 51.37 0 0 1 18.71 7.8z" style="fill:#f15a24"></path>
        <path d="M137 67.43c-4.87 33.88-33.53 59.87-68.14 59.87S5.61 101.3.73 67.43A72.55 72.55 0 0 0 0 77.68c0 38.73 30.83 70.12 68.88 70.12s68.88-31.39 68.88-70.12a72.55 72.55 0 0 0-.76-10.25z" style="fill:#ed1c24"></path>
        <path d="M68.88 21.58c26.29 0 47.68 21.78 47.68 48.55s-21.39 48.55-47.68 48.55-47.69-21.79-47.69-48.56 21.39-48.54 47.69-48.54m0-21.58C30.84 0 0 31.4 0 70.12s30.84 70.12 68.88 70.12 68.88-31.4 68.88-70.12S106.91 0 68.88 0z" style="fill:#f7931e"></path>
        <path d="M69.4 119.75c-26.78 0-50.61-10.67-65.81-27.25 9.16 27.76 34.92 47.75 65.28 47.75 29.71 0 55-19.15 64.68-46-15.25 15.59-38.33 25.5-64.15 25.5z" style="fill:#f15a24"></path>
        <path d="M94.77 61.56l-39.54 40.26a8.93 8.93 0 0 1-12.76 0 9.33 9.33 0 0 1 0-13L82 48.58a8.93 8.93 0 0 1 12.76 0 9.34 9.34 0 0 1 0 13z" style="fill:#c1272d"></path>
        <path d="M56.76 46.2L96.3 86.46a7.13 7.13 0 0 1 .59.68 9.32 9.32 0 0 1-.61 12.29 8.92 8.92 0 0 1-12.07.62 7.09 7.09 0 0 1-.66-.6L44 59.18a9.33 9.33 0 0 1 0-13 8.94 8.94 0 0 1 12.76 0z" style="fill:#c1272d"></path>
        <path d="M94.77 59L55.23 99.22a8.93 8.93 0 0 1-12.76 0 9.33 9.33 0 0 1 0-13L82 46a8.93 8.93 0 0 1 12.76 0 9.34 9.34 0 0 1 0 13z" style="fill:#fff"></path>
        <path d="m54.21 46.2 39.54 40.26a7.13 7.13 0 0 1 .59.68 9.32 9.32 0 0 1-.61 12.29 8.92 8.92 0 0 1-12.07.62 7.09 7.09 0 0 1-.66-.6L41.45 59.18a9.33 9.33 0 0 1 0-13 8.94 8.94 0 0 1 12.76 0zM59.06 95.33l-3.83 3.9a8.93 8.93 0 0 1-12.76 0 9.33 9.33 0 0 1 0-13l3.83-3.9a8.93 8.93 0 0 1 12.76 0 9.34 9.34 0 0 1 0 13z" style="fill:#fff"></path>
        <path d="M94.33 87.13a9.32 9.32 0 0 1-.61 12.29 8.92 8.92 0 0 1-12.07.62 9.32 9.32 0 0 1 .61-12.29 8.93 8.93 0 0 1 12.07-.62z" style="fill:#fff"></path>
        <circle cx="86.19" cy="53.9" r="4.94" style="fill:#fff;mix-blend-mode:soft-light"></circle>
        <circle cx="80.42" cy="60.49" r="2.47" style="fill:#fff;mix-blend-mode:soft-light"></circle>
      </g>
    </g>
  </g>
</svg>
